<?xml version="1.0" standalone="no"?>
<!DOCTYPE svg PUBLIC "-//W3C//DTD SVG 20010904//EN"
 "http://www.w3.org/TR/2001/REC-SVG-20010904/DTD/svg10.dtd">
<svg version="1.0" xmlns="http://www.w3.org/2000/svg"
 width="500.000000pt" height="500.000000pt" viewBox="0 0 500.000000 500.000000"
 preserveAspectRatio="xMidYMid meet">
<metadata>
Created by potrace 1.14, written by Peter Selinger 2001-2017
</metadata>
<g transform="translate(0.000000,500.000000) scale(0.100000,-0.100000)"
fill="#000000" stroke="none">
<path d="M0 2500 l0 -2500 2500 0 2500 0 0 2500 0 2500 -2500 0 -2500 0 0
-2500z m3370 1906 l0 -63 -96 -7 c-149 -11 -210 -36 -238 -96 -8 -18 -13 -400
-17 -1375 -5 -1312 -6 -1354 -26 -1480 -35 -215 -81 -371 -148 -505 -113 -225
-312 -339 -620 -356 -199 -11 -348 35 -465 142 -75 70 -111 141 -118 233 -14
203 132 341 322 301 115 -24 176 -100 176 -220 0 -51 -5 -73 -25 -105 -72
-117 -71 -144 5 -183 39 -20 55 -23 118 -18 192 13 285 128 339 416 17 88 18
202 18 1610 0 1504 0 1515 -20 1550 -30 52 -79 71 -211 83 l-114 11 0 63 0 63
560 0 560 0 0 -64z"/>
</g>
</svg>
